<?xml version="1.0" encoding="utf-8"?>
<!-- Generator: Adobe Illustrator 27.0.0, SVG Export Plug-In . SVG Version: 6.00 Build 0)  -->
<svg version="1.1" id="Layer_1" xmlns="http://www.w3.org/2000/svg" xmlns:xlink="http://www.w3.org/1999/xlink" x="0px" y="0px"
	 viewBox="0 0 64 64" style="enable-background:new 0 0 64 64;" xml:space="preserve">
<style type="text/css">
	.st0{fill:#FFCC00;}
	.st1{fill:#7EDE00;}
	.st2{fill:#73B708;}
</style>
<path id="Path_1" class="st0" d="M59.73,63.94H47.02c-2.36,0-4.27-1.91-4.27-4.27V46.96c0-2.36,1.91-4.27,4.27-4.27h12.71
	c2.36,0,4.27,1.91,4.27,4.27v12.71C64,62.03,62.09,63.94,59.73,63.94"/>
<path id="Path_2" class="st1" d="M64,4.47v12.71c0,2.36-1.91,4.27-4.27,4.27H47.02c-2.36,0-4.26,1.91-4.26,4.27v12.71
	c0,2.36-1.91,4.27-4.27,4.27H25.78c-2.36,0-4.26,1.91-4.27,4.26v12.71c0,2.36-1.91,4.27-4.27,4.27H4.53c-2.36,0-4.26-1.91-4.26-4.27
	V25.71c0-2.36,1.91-4.26,4.26-4.27h12.71c2.36,0,4.27-1.91,4.27-4.27V4.47c0-2.36,1.91-4.27,4.27-4.27h33.96
	C62.09,0.21,64,2.11,64,4.47"/>
<path id="Path_3" class="st2" d="M24.95,21.45h16.38c0.79,0,1.43,0.64,1.43,1.43l0,0v16.38c0,0.79-0.64,1.42-1.43,1.42
	c-0.38,0-0.73-0.15-1-0.41L23.94,23.88c-0.55-0.56-0.55-1.46,0.01-2.02C24.21,21.6,24.57,21.45,24.95,21.45"/>
<path id="Path_4" class="st2" d="M4.73,42.69h14.94c1.02,0,1.85,0.83,1.85,1.85v14.94c0,1.02-0.83,1.85-1.85,1.85
	c-0.49,0-0.96-0.19-1.3-0.54L3.42,45.85c-0.72-0.72-0.72-1.89,0-2.61C3.77,42.89,4.24,42.69,4.73,42.69"/>
</svg>
