<svg xmlns="http://www.w3.org/2000/svg" width="24" height="24" viewBox="0 0 24 24">
  <g id="vuesax_bold_star" data-name="vuesax/bold/star" transform="translate(-428 -188)">
    <g id="star">
      <path id="Vector" d="M0,0H24V24H0Z" transform="translate(428 188)" fill="none" opacity="0"/>
      <path id="Vector-2" data-name="Vector" d="M9.389,1.149l1.41,2.82a1.759,1.759,0,0,0,1.13.84l2.55.42c1.63.27,2.01,1.45.84,2.63l-1.99,1.99a1.726,1.726,0,0,0-.41,1.45l.57,2.46c.45,1.94-.59,2.7-2.3,1.68L8.8,14.019a1.7,1.7,0,0,0-1.58,0l-2.39,1.42c-1.71,1.01-2.75.26-2.3-1.68L3.1,11.3a1.817,1.817,0,0,0-.43-1.46L.679,7.849c-1.17-1.17-.79-2.35.84-2.63l2.55-.42a1.727,1.727,0,0,0,1.13-.84l1.41-2.82C7.379-.381,8.619-.381,9.389,1.149Z" transform="translate(434.001 192.061)" fill="#292d32"/>
      <path id="Vector-3" data-name="Vector" d="M6.75,1.5h-6A.755.755,0,0,1,0,.75.755.755,0,0,1,.75,0h6A.755.755,0,0,1,7.5.75.755.755,0,0,1,6.75,1.5Z" transform="translate(429.25 192.25)" fill="#292d32"/>
      <path id="Vector-4" data-name="Vector" d="M3.75,1.5h-3A.755.755,0,0,1,0,.75.755.755,0,0,1,.75,0h3A.755.755,0,0,1,4.5.75.755.755,0,0,1,3.75,1.5Z" transform="translate(429.25 206.25)" fill="#292d32"/>
      <path id="Vector-5" data-name="Vector" d="M1.75,1.5h-1A.755.755,0,0,1,0,.75.755.755,0,0,1,.75,0h1A.755.755,0,0,1,2.5.75.755.755,0,0,1,1.75,1.5Z" transform="translate(429.25 199.25)" fill="#292d32"/>
    </g>
  </g>
</svg>
