<svg id="Group_10" data-name="Group 10" xmlns="http://www.w3.org/2000/svg" xmlns:xlink="http://www.w3.org/1999/xlink" width="96.704" height="113.985" viewBox="0 0 96.704 113.985">
  <defs>
    <clipPath id="clip-path">
      <rect id="Rectangle_1" data-name="Rectangle 1" width="96.704" height="113.985" fill="none"/>
    </clipPath>
  </defs>
  <g id="Group_1" data-name="Group 1" clip-path="url(#clip-path)">
    <path id="Path_1" data-name="Path 1" d="M265.33,270.854H248.062a5.793,5.793,0,0,1-5.793-5.793V247.793A5.793,5.793,0,0,1,248.062,242H265.33a5.793,5.793,0,0,1,5.793,5.793v17.268a5.793,5.793,0,0,1-5.793,5.793" transform="translate(-184.497 -184.292)" fill="#fc0"/>
    <path id="Path_2" data-name="Path 2" d="M86.832,5.793V23.061a5.793,5.793,0,0,1-5.793,5.793H63.77a5.793,5.793,0,0,0-5.792,5.793V51.915a5.793,5.793,0,0,1-5.793,5.793H34.917A5.793,5.793,0,0,0,29.124,63.5V80.769a5.793,5.793,0,0,1-5.793,5.793H6.062A5.793,5.793,0,0,1,.27,80.769V34.647a5.793,5.793,0,0,1,5.792-5.793H23.331a5.793,5.793,0,0,0,5.793-5.793V5.793A5.793,5.793,0,0,1,34.917,0H81.039a5.793,5.793,0,0,1,5.793,5.793" transform="translate(-0.206)" fill="#7ede00"/>
    <path id="Path_3" data-name="Path 3" d="M134.674,121h22.244a1.936,1.936,0,0,1,1.936,1.936V145.18a1.936,1.936,0,0,1-3.3,1.369L133.3,124.3a1.936,1.936,0,0,1,1.369-3.3" transform="translate(-101.082 -92.146)" fill="#73b708"/>
    <path id="Path_4" data-name="Path 4" d="M17.635,242H37.926a2.508,2.508,0,0,1,2.508,2.508V264.8a2.508,2.508,0,0,1-4.281,1.773L15.861,246.281A2.508,2.508,0,0,1,17.635,242" transform="translate(-11.516 -184.292)" fill="#73b708"/>
    <path id="Path_103" data-name="Path 103" d="M7.089-6.732A2.663,2.663,0,0,1,8.781-5.678a3.84,3.84,0,0,1,.552,2.21V0h-3.2V-3.757A1.066,1.066,0,0,0,5.78-4.6a1.388,1.388,0,0,0-.952-.314H3.876V0H.68V-8.313a3.677,3.677,0,0,1,1.1-2.831,4.292,4.292,0,0,1,3.043-1.028,4.579,4.579,0,0,1,2.082.433A3.16,3.16,0,0,1,8.2-10.616,2.657,2.657,0,0,1,8.636-9.18a2.829,2.829,0,0,1-.4,1.547A2.207,2.207,0,0,1,7.089-6.732ZM3.791-7.7h.952a.96.96,0,0,0,.638-.238.936.936,0,0,0,.2-.663.847.847,0,0,0-.255-.638.892.892,0,0,0-.646-.247.873.873,0,0,0-.646.238.873.873,0,0,0-.238.646Zm9.758,3.553a1.584,1.584,0,0,0,.34,1.063,1.143,1.143,0,0,0,.918.4,1.143,1.143,0,0,0,.918-.4,1.584,1.584,0,0,0,.34-1.063V-5.1a3.183,3.183,0,0,0-.187-1.147,2.6,2.6,0,0,0-.476-.807,9.818,9.818,0,0,0-.765-.748,10.155,10.155,0,0,1-.858-.859,3.138,3.138,0,0,1-.552-.986A4.24,4.24,0,0,1,13-11.1v-.8h3.2v.527a1.561,1.561,0,0,0,.28.935,6.473,6.473,0,0,0,.876.935,10.625,10.625,0,0,1,.986,1.012,4.073,4.073,0,0,1,.646,1.173,4.9,4.9,0,0,1,.272,1.726v1.649a4.323,4.323,0,0,1-.552,2.21A3.789,3.789,0,0,1,17.144-.255a4.987,4.987,0,0,1-2.337.527,4.987,4.987,0,0,1-2.337-.527,3.789,3.789,0,0,1-1.564-1.479,4.323,4.323,0,0,1-.552-2.21V-5.491h3.2Zm12.614-3.6a1.584,1.584,0,0,0-.34-1.062,1.143,1.143,0,0,0-.918-.4,1.143,1.143,0,0,0-.918.4,1.584,1.584,0,0,0-.34,1.063V0h-3.2V-7.956A4.323,4.323,0,0,1,21-10.166a3.789,3.789,0,0,1,1.564-1.479,4.987,4.987,0,0,1,2.337-.527,4.987,4.987,0,0,1,2.338.527,3.789,3.789,0,0,1,1.564,1.479,4.323,4.323,0,0,1,.553,2.21V0h-3.2Zm14.569-.255a3.981,3.981,0,0,1,1.964.476A3.3,3.3,0,0,1,44.021-6.2a4.075,4.075,0,0,1,.467,1.98V0h-3.2V-3.757a1.456,1.456,0,0,0-.28-.952.987.987,0,0,0-.808-.34.987.987,0,0,0-.807.34,1.456,1.456,0,0,0-.28.952v2.363h-3.2V-3.757a1.456,1.456,0,0,0-.28-.952.987.987,0,0,0-.807-.34.987.987,0,0,0-.807.34,1.456,1.456,0,0,0-.281.952V0h-3.2V-6.715a5.141,5.141,0,0,1,.705-2.7,4.853,4.853,0,0,1,1.963-1.827,6.172,6.172,0,0,1,2.89-.655H42.16v2.8h-6.6a2.285,2.285,0,0,0-1.471.468,1.244,1.244,0,0,0-.518,1.147q.289-.527,1.462-.527a2.5,2.5,0,0,1,1.547.527,2.54,2.54,0,0,1,.935,1.394,2.342,2.342,0,0,1,1.1-1.437A4.145,4.145,0,0,1,40.732-8.007ZM51.68-7.7a3.586,3.586,0,0,1,2.065,1.377,4.124,4.124,0,0,1,.757,2.5,4.07,4.07,0,0,1-.561,2.15,3.764,3.764,0,0,1-1.59,1.436,5.312,5.312,0,0,1-2.389.51,5.312,5.312,0,0,1-2.389-.51,3.764,3.764,0,0,1-1.59-1.436,4.07,4.07,0,0,1-.561-2.15,4.118,4.118,0,0,1,.833-2.635,3.674,3.674,0,0,1,2.312-1.326v-.765A1.406,1.406,0,0,0,48.4-9.3a2.958,2.958,0,0,0-.527-.6,3.283,3.283,0,0,1-.561-.672,1.718,1.718,0,0,1-.187-.875V-11.9h3.094v.238a.8.8,0,0,0,.144.476,4.255,4.255,0,0,0,.451.51,4.063,4.063,0,0,1,.646.765,1.757,1.757,0,0,1,.221.935ZM49.963-2.686a1.388,1.388,0,0,0,.986-.348,1.186,1.186,0,0,0,.374-.909,1.159,1.159,0,0,0-.374-.9,1.409,1.409,0,0,0-.986-.34,1.409,1.409,0,0,0-.986.34,1.159,1.159,0,0,0-.374.9,1.186,1.186,0,0,0,.374.909A1.388,1.388,0,0,0,49.963-2.686ZM61.319-7.752a1.584,1.584,0,0,0-.34-1.062,1.143,1.143,0,0,0-.918-.4,1.143,1.143,0,0,0-.918.4,1.584,1.584,0,0,0-.34,1.063V0h-3.2V-7.956a4.323,4.323,0,0,1,.552-2.21,3.789,3.789,0,0,1,1.564-1.479,4.987,4.987,0,0,1,2.337-.527,4.987,4.987,0,0,1,2.338.527,3.789,3.789,0,0,1,1.564,1.479,4.323,4.323,0,0,1,.553,2.21V0h-3.2Zm12.7-4.148v2.8H70.533q-1.479,0-1.479.833v.493h1.462A4.6,4.6,0,0,1,73.7-6.724a3.675,3.675,0,0,1,1.164,2.882A4.035,4.035,0,0,1,74.3-1.7,3.858,3.858,0,0,1,72.7-.246a5.121,5.121,0,0,1-2.338.519,5.133,5.133,0,0,1-2.371-.519,3.719,3.719,0,0,1-1.564-1.479,4.4,4.4,0,0,1-.552-2.235V-8.279a3.455,3.455,0,0,1,1.02-2.695A4.283,4.283,0,0,1,69.87-11.9ZM69.054-4.131A1.526,1.526,0,0,0,69.4-3.077a1.221,1.221,0,0,0,.961.391A1.421,1.421,0,0,0,71.324-3a1.054,1.054,0,0,0,.366-.842,1.029,1.029,0,0,0-.366-.833,1.447,1.447,0,0,0-.961-.306H69.054Zm11.594-8.041a4.538,4.538,0,0,1,3.2,1.08,3.81,3.81,0,0,1,1.173,2.95v4.2a4.323,4.323,0,0,1-.552,2.21A3.789,3.789,0,0,1,82.9-.255a4.987,4.987,0,0,1-2.338.527,4.987,4.987,0,0,1-2.337-.527,3.789,3.789,0,0,1-1.564-1.479,4.323,4.323,0,0,1-.552-2.21v-1.19h3.2v.986a1.584,1.584,0,0,0,.34,1.063,1.143,1.143,0,0,0,.918.4,1.143,1.143,0,0,0,.918-.4,1.584,1.584,0,0,0,.34-1.063v-3.6a1.688,1.688,0,0,0-.306-1.08,1.047,1.047,0,0,0-.867-.382,1.046,1.046,0,0,0-.867.382,1.688,1.688,0,0,0-.306,1.08v.459h-3.2v-.85a4.056,4.056,0,0,1,.544-2.108,3.658,3.658,0,0,1,1.538-1.42A5.011,5.011,0,0,1,80.648-12.172Z" transform="translate(0 106.46)" fill="#7ede00"/>
  </g>
</svg>
