<svg xmlns="http://www.w3.org/2000/svg" xmlns:xlink="http://www.w3.org/1999/xlink" width="66.771" height="94.835" viewBox="0 0 66.771 94.835">
  <defs>
    <clipPath id="clip-path">
      <rect width="66.771" height="94.835" fill="none"/>
    </clipPath>
  </defs>
  <g id="Repeat_Grid_1" data-name="Repeat Grid 1" clip-path="url(#clip-path)">
    <g id="Group_6" data-name="Group 6" transform="translate(0)">
      <g id="Group_5" data-name="Group 5" clip-path="url(#clip-path)">
        <path id="Path_9" data-name="Path 9" d="M261.861,103.954l-.016-.051.189-.131c.228-.264.122-.582.122-.873,0-3.641.015-7.282-.018-10.922a20.773,20.773,0,0,1,.9-5.882,1.315,1.315,0,0,1,1.192-1.14,8.4,8.4,0,0,0,.958-.218c.154-.071.195-.149.014-.239q0-.1-.007-.2a33.516,33.516,0,0,0,10.872-2.4,4.594,4.594,0,0,0,2.342-3.192,11.5,11.5,0,0,0-.088-7.2,87.6,87.6,0,0,0-3.658-9.211,4.149,4.149,0,0,1-.513-2.17,4.055,4.055,0,0,1,1.488-.109,4.89,4.89,0,0,0,.95,2.956,1.6,1.6,0,0,0,2.809.007c.107-.138.217-.273.325-.41a31.983,31.983,0,0,1,7.609,19.566A31.537,31.537,0,0,1,282.6,100.5,32.209,32.209,0,0,1,263.393,115a63.646,63.646,0,0,0-1.532-11.051m16.922-5.832a3.014,3.014,0,1,0-2.956-3.032,3.009,3.009,0,0,0,2.956,3.032" transform="translate(-222.059 -50.881)" fill="#abce67"/>
        <path id="Path_10" data-name="Path 10" d="M123.577,4.848a32.727,32.727,0,0,0-32.914-.8c-.266.146-.529.3-.793.446a12.725,12.725,0,0,0-.158,2.956L90,7.443q.079-1.086.159-2.171c.011-.148,0-.334.2-.349.256-.019.256.2.255.368-.007.728-.024,1.457-.037,2.185.093.266-.108.473-.142.714l.3.033c.307-.271.426-.83,1.065-.661-.067.269-.32.468-.284.756l.484.02a5.438,5.438,0,0,1,.912-2.924,1.765,1.765,0,0,1,3.158.046,5.415,5.415,0,0,1,.874,2.634,5.676,5.676,0,0,1-1.193,4.484,1.547,1.547,0,0,1-2.5.046A4.882,4.882,0,0,1,92.006,9.3l-1.1-.032A9.232,9.232,0,0,1,89.553,10.8C88.7,14.058,87.77,17.3,87.2,20.634a10.129,10.129,0,0,0,.081,4.494,1.19,1.19,0,0,0,1.433,1.017,9.748,9.748,0,0,1,1.959-.11c2.009.139,4.02.278,6.014.578l.457-.148.041-.043.118-.1L104.132,26a5.341,5.341,0,0,0,.309-1.391,5.907,5.907,0,0,1-4.545-.255c-1.068-.425-1.348-.9-.994-1.987A4.943,4.943,0,0,1,102.185,19a18.532,18.532,0,0,0,.243-4.39c-.455-.216-.92-.413-1.362-.652a.763.763,0,0,1-.349-1.1,1.672,1.672,0,0,1,1.414-1,4.488,4.488,0,0,0,2.482-1.006c.162-.115.277-.3.49-.338a9.044,9.044,0,0,1,3.524.1c.483.1.8.336.575.908a.607.607,0,0,0,.215.68c.289.283.571.574.875.84,1.331,1.161,1.458,1.723.657,3.27a1.7,1.7,0,0,0-.161,1.3,5.17,5.17,0,0,1,.024,2.768,1.293,1.293,0,0,1-1.68.986c-.245-.057-.483-.14-.725-.212a8.226,8.226,0,0,0,.828,4.385c.148.289.282.6.679.632a2.734,2.734,0,0,1,1.177-.175c1.431.065,2.862.116,4.294.172l.3,0,.461.012c.247.133.935-.449.714.44.852-.092,1.7-.186,2.556-.277a26.26,26.26,0,0,1,5.519-.146.964.964,0,0,0,1.123-.613,3.647,3.647,0,0,0,.275-1.093,16.7,16.7,0,0,0-.562-6.138c-.529-2.544-1.251-5.04-1.892-7.555a8.353,8.353,0,0,1-1.355-1.52l-1.094.041a5.925,5.925,0,0,1-.874,2.862c-.9,1.349-2.176,1.4-3.153.121a6.726,6.726,0,0,1-.022-6.9,1.765,1.765,0,0,1,3.157.086,6.441,6.441,0,0,1,.907,2.859l.484-.02c-.018-.279-.316-.49-.242-.8.6-.066.695.548,1.1.7l.2-.026c-.013-.244-.22-.456-.123-.719-.014-.675-.035-1.35-.036-2.025,0-.179-.095-.481.184-.488.3-.008.269.3.273.519.014.65.016,1.3.023,1.952l.435.022a11.587,11.587,0,0,0-.163-2.6" transform="translate(-73.769 0)" fill="#abce67"/>
        <path id="Path_11" data-name="Path 11" d="M8.822,63.305a1.467,1.467,0,0,0,2.266-.039,4.918,4.918,0,0,0,1.224-3.247A4.734,4.734,0,0,1,13.8,60.1c.142,1.489-.792,2.625-1.309,3.889a57.657,57.657,0,0,0-3.283,9.1,10.264,10.264,0,0,0,1.1,7.386,3.232,3.232,0,0,0,1.59,1.445,27.2,27.2,0,0,0,7.666,1.936c.924.118,1.852.2,2.779.3-.057.146-.162.313.134.3.662.145,1.322.3,1.987.43a.479.479,0,0,1,.458.482c.5,3.619,1.019,7.234,1.513,10.853.272,2,.5,4,.748,6a.379.379,0,0,0,.159.322c0,.036,0,.072,0,.107-2.267.8-4.529,1.614-6.8,2.389-.605.206-.334.528-.217.861-2.093,1.03-4.073,2.26-6.079,3.444a2.531,2.531,0,0,1-1,.489,34.293,34.293,0,0,1-3.822-3.344C1.543,98.176-1.43,88.366.637,77.115A30.83,30.83,0,0,1,8.014,62.128a5.5,5.5,0,0,0,.808,1.177M7.777,92.1a3.014,3.014,0,1,0,.057,6.027A3.014,3.014,0,0,0,7.777,92.1" transform="translate(0 -50.885)" fill="#abce67"/>
        <path id="Path_12" data-name="Path 12" d="M74.807,362.052c-2.093,1.03-4.073,2.26-6.079,3.444a2.529,2.529,0,0,1-1,.489c-.344.5-.919.692-1.366,1.053a4.938,4.938,0,0,0-2.062,2.968,3.458,3.458,0,0,0,.23,1.763,1.9,1.9,0,0,0,2.159-.741,5.7,5.7,0,0,1,.554-.489l.063-.184a.623.623,0,0,1,.05.037c-.032.053-.067.105-.1.157-.524,1.578-1.448,2.039-2.717,1.357a37.674,37.674,0,0,0,.667,7.138c.4,2.79.87,5.571,1.309,8.356,1.317.036,2.622-.138,3.931-.227-.107-2.92-.152-5.844-.343-8.759a20.524,20.524,0,0,0-.662-4.921c-.3-.96-.017-1.317.967-1.661,1.188-.416,2.352-.9,3.522-1.366a3.888,3.888,0,0,1,1.215-.392,7.45,7.45,0,0,1,1.82-.906,2.522,2.522,0,0,0-.232-.942c-.554-1.922-1.3-3.786-1.73-5.746a.536.536,0,0,0-.193-.428" transform="translate(-54.496 -307.04)" fill="#f9d394"/>
        <path id="Path_13" data-name="Path 13" d="M132.77,343.911a.537.537,0,0,1,.193.428c1.21,1.976,2.288,4.024,3.323,6.095.311.727.762.76,1.477.476,1.73-.687,3.508-1.25,5.256-1.895.427-.157.625-.051.7.36.273,1.609.539,3.219.808,4.829.343.3.779.06,1.152.194l.494,0,3.374-.048q-.477-5.671-.954-11.342a14.269,14.269,0,0,1-3.083-.016,10.214,10.214,0,0,1-5.555-2.292l0,0-.163-.038c-2.267.8-4.529,1.614-6.8,2.389-.605.206-.334.528-.217.861" transform="translate(-112.458 -288.9)" fill="#d3b91c"/>
        <path id="Path_14" data-name="Path 14" d="M219.1,431.044l-.494,0c.345,3.508.88,6.992,1.46,10.466.444,2.662,2.344,3.86,4.81,4.368,3.48.718,6.91,1.646,10.363,2.473a35.586,35.586,0,0,0,1.019-3.795c-2.69-1.069-5.33-2.268-8.095-3.143a7.53,7.53,0,0,0-1.687-.386,1.388,1.388,0,0,1-1.455-1.571c.007-1.589.36-3.144.518-4.719.083-.824.182-1.647.274-2.471a10.382,10.382,0,0,1-2.155-.338c-1.52-.295-3.068-.446-4.558-.89" transform="translate(-185.388 -365.55)" fill="#f9d394"/>
        <path id="Path_15" data-name="Path 15" d="M302.641,598.8c-1.949,0-3.9-.093-5.844.015a30.755,30.755,0,0,0-7.768,1.036,3.27,3.27,0,0,0-.428.152c-.311.15-.7.247-.689.7.008.409.361.523.652.649a15.221,15.221,0,0,0,4.194.909,56.653,56.653,0,0,0,9.457.287,27.9,27.9,0,0,0,7.54-1.011c.486-.158,1.2-.247,1.18-.872-.022-.6-.732-.68-1.223-.847a20.731,20.731,0,0,0-3.777-.721c-.224-.032-.461,0-.62-.208-.031.171-.07.341-.092.513a1.938,1.938,0,0,1-2.461,1.664c-.386.01-.782-.024-.976-.4-.208-.4.179-.617.374-.89.212-.3.521-.551.48-.974" transform="translate(-244.166 -507.784)" fill="#abce67"/>
        <path id="Path_16" data-name="Path 16" d="M14.021,599.809c-.22.273-.582.278-.858.45-.564.352-.583.838.007,1.145a10.379,10.379,0,0,0,3.347.864,56.866,56.866,0,0,0,10.564.434,31.206,31.206,0,0,0,7.1-.885,5.562,5.562,0,0,0,1.129-.422c.583-.307.573-.822-.019-1.134a9.7,9.7,0,0,0-3.277-.84c-1.642-.227-3.3-.325-4.953-.478-.038.318-.315.486-.465.734.41.483.349.74-.333.788a73.457,73.457,0,0,1-10.16-.048,3.645,3.645,0,0,1-2.079-.608" transform="translate(-10.799 -507.938)" fill="#abce67"/>
        <path id="Path_17" data-name="Path 17" d="M147.3,400.447c-.268-1.61-.534-3.22-.807-4.829-.07-.412-.268-.518-.7-.36-1.747.645-3.526,1.208-5.256,1.895-.715.284-1.166.251-1.477-.476l-1.361.594a7.443,7.443,0,0,0-1.82.906,32.661,32.661,0,0,0,11.417,2.271" transform="translate(-115.235 -335.142)" fill="#abce67"/>
        <path id="Path_18" data-name="Path 18" d="M50.064,33.424a5.508,5.508,0,0,0,.808,1.177,1.467,1.467,0,0,0,2.266-.039,4.918,4.918,0,0,0,1.224-3.247c-1.153-.052-1.119-.044-.949-.782.156-.68.6-.308.94-.319q-.012-.478-.024-.956l-.1-.285v-.017a4.558,4.558,0,0,0-.95-2.111,1.543,1.543,0,0,0-2.576.007,5.137,5.137,0,0,0-1.071,2.855,8.343,8.343,0,0,0,.433,3.717" transform="translate(-42.051 -22.181)" fill="#1e4361"/>
        <path id="Path_19" data-name="Path 19" d="M352.413,31.333a4.892,4.892,0,0,0,.95,2.956,1.6,1.6,0,0,0,2.809.007c.107-.138.217-.273.325-.41a7.573,7.573,0,0,0,.041-6.252,3.233,3.233,0,0,0-.389-.648,1.594,1.594,0,0,0-2.78.017,5.254,5.254,0,0,0-.958,2.6q-.019.26-.039.521c.069.027.151.095.2.077.787-.263.832.317.834.8,0,.6-.521.194-.777.321a.6.6,0,0,1-.22.015" transform="translate(-298.832 -22.202)" fill="#1e4361"/>
        <path id="Path_20" data-name="Path 20" d="M33.528,585.136c.15-.248.427-.415.465-.734a2.771,2.771,0,0,0-.454-2,2.238,2.238,0,0,1-3.033-.549c-.548-.211-.993.186-1.495.251.13.319.194.665-.19.818-.456.182-.4-.384-.65-.528l-.706.2c.03.333.379.751-.152.951-.452.17-.418-.364-.634-.547a1,1,0,0,1-.1-.109,5.789,5.789,0,0,1-3.415.633,3.344,3.344,0,0,0-1.627.228.735.735,0,0,0-.627.813,9.742,9.742,0,0,0,3.7.628,50.376,50.376,0,0,0,8.915-.058" transform="translate(-17.734 -493.396)" fill="#fc0"/>
        <path id="Path_21" data-name="Path 21" d="M78.752,544.159a2.239,2.239,0,0,0,3.033.549q.358-3.682.716-7.364l-4.7.305.95,6.51" transform="translate(-65.98 -455.698)" fill="#f1a65b"/>
        <path id="Path_22" data-name="Path 22" d="M337.64,526.241c2.3.347,4.559.917,6.828,1.424a2.9,2.9,0,0,0,.3-3.122c-2.045-.792-4-1.792-6-2.687-.4,1.455-.867,2.894-1.131,4.384" transform="translate(-286.338 -442.564)" fill="#f1a65b"/>
        <path id="Path_23" data-name="Path 23" d="M379.706,537.17a2.9,2.9,0,0,1-.3,3.122c-.414.3-.286.654-.12,1.017a.7.7,0,0,0,.214.046c.393-.047.729.065.761.488s-.4.3-.637.4c-.067.028-.13.064-.2.1q.009.313.018.627c.369.037.9-.117.927.447.022.467-.556.231-.786.452a10.644,10.644,0,0,1,.164,2.337c.04.423-.268.678-.48.975-.2.273-.581.488-.374.89.194.376.591.411.977.4,1.416-.484,1.794-1.587,1.858-2.954.131-2.822.325-5.642.493-8.462a4.084,4.084,0,0,0-2.029-.3c-.238.012-.6-.047-.491.412" transform="translate(-321.276 -455.19)" fill="#fc0"/>
        <path id="Path_24" data-name="Path 24" d="M254.949,360.1a63.647,63.647,0,0,0-1.532-11.051c-.034-.013-.067-.028-.1-.044a7.336,7.336,0,0,1-1.43.616c.076.776.161,1.552.228,2.329q.408,4.736.807,9.472l1.295.041c.589.067.791-.21.713-.772a3.422,3.422,0,0,1,.017-.59" transform="translate(-213.616 -295.972)" fill="#d3b91c"/>
        <path id="Path_25" data-name="Path 25" d="M388.009,538.194c-.168,2.82-.362,5.64-.493,8.462-.064,1.367-.442,2.469-1.858,2.954a1.937,1.937,0,0,0,2.46-1.664c.022-.172.061-.342.092-.513.258-2.842.5-5.684.6-8.536.031-.844-.076-.924-.8-.7" transform="translate(-327.06 -456.33)" fill="#8c5a41"/>
        <path id="Path_26" data-name="Path 26" d="M32.983,600.59a50.376,50.376,0,0,1-8.915.058,9.742,9.742,0,0,1-3.7-.628c-.226.248-.008.47.042.7a3.643,3.643,0,0,0,2.079.608,73.445,73.445,0,0,0,10.16.048c.682-.047.743-.3.333-.788" transform="translate(-17.189 -508.851)" fill="#8c5a41"/>
        <path id="Path_27" data-name="Path 27" d="M329.5,522.078c.264-1.491.729-2.93,1.131-4.384.046-.825-.7-.452-1.048-.673-.406-.256-.365.228-.517.391a35.61,35.61,0,0,1-1.019,3.795c-.054.71.3.925,1.454.871" transform="translate(-278.196 -438.401)" fill="#1e4361"/>
        <path id="Path_28" data-name="Path 28" d="M76.613,529.152l4.7-.305c.338-.43.066-.891.034-1.326-.027-.37-.412-.084-.609-.187-1.309.089-2.614.263-3.931.227-.745.447-.25,1.046-.194,1.591" transform="translate(-64.791 -447.2)" fill="#1e4361"/>
        <path id="Path_29" data-name="Path 29" d="M228.749,430.764l-1.295-.04h-.75l-.735.013-.74-.014-3.374.049c1.49.444,3.039.6,4.558.89a10.384,10.384,0,0,0,2.155.338l0-.015a.3.3,0,0,1,.109-.308l.069-.913" transform="translate(-188.146 -365.277)" fill="#e99d79"/>
        <path id="Path_30" data-name="Path 30" d="M97.337,32.5a12.717,12.717,0,0,1,.158-2.956,1.427,1.427,0,0,0-1.518.974,5.185,5.185,0,0,1,.117,1.953l.481.031V30.172l.279.008v2.3l.482.024" transform="translate(-81.394 -25.054)" fill="#e99d79"/>
        <path id="Path_31" data-name="Path 31" d="M80.807,40.662q.012.478.024.956l1.5.012q.011-.293.022-.586-.011-.721-.022-1.442l-1.523,1.06" transform="translate(-68.529 -33.585)" fill="#abce67"/>
        <path id="Path_32" data-name="Path 32" d="M343.684,43.571q.02-.261.039-.521c-.626-.143-.981-.683-1.482-1.011-.315.353.139.722-.023,1.079q.011.288.022.577a3.078,3.078,0,0,0,1.443-.123" transform="translate(-290.143 -35.651)" fill="#abce67"/>
        <path id="Path_33" data-name="Path 33" d="M327.8,29.613a11.586,11.586,0,0,1,.163,2.6l.466-.013q0-1.064,0-2.127c-.01-.171-.015-.342-.032-.512s-.084-.352-.29-.363c-.282-.015-.27.223-.3.411" transform="translate(-277.995 -24.765)" fill="#e99d79"/>
        <path id="Path_34" data-name="Path 34" d="M333.646,31.947a.823.823,0,0,1-.171-.546c-.022-.267.113-.7-.328-.68-.352.018-.223.425-.271.674a6.569,6.569,0,0,1,.144,2.1l.479-.012c.054-.513-.18-1.053.147-1.539" transform="translate(-282.298 -26.052)" fill="#e99d79"/>
        <path id="Path_35" data-name="Path 35" d="M90.831,34.869q.011.721.022,1.442l.464-.026q.07-.974.141-1.948c-.017-.2-.093-.342-.326-.312-.183.024-.238.157-.252.319s-.032.35-.048.525" transform="translate(-77.03 -28.852)" fill="#e99d79"/>
        <path id="Path_36" data-name="Path 36" d="M339.33,36.512c.162-.356-.291-.726.023-1.079a1.629,1.629,0,0,0-.078-.508c-.118-.231.119-.728-.348-.671-.342.042-.142.453-.195.7q0,.772.009,1.545l.589.016" transform="translate(-287.255 -29.046)" fill="#e99d79"/>
        <path id="Path_37" data-name="Path 37" d="M380.244,567.814c.065-.032.129-.069.2-.1.239-.1.671.028.637-.4s-.368-.535-.761-.488a.693.693,0,0,1-.214-.046c-.376.4-.477.768.143,1.033" transform="translate(-322.091 -480.662)" fill="#9b7174"/>
        <path id="Path_38" data-name="Path 38" d="M66,419.275c1.269.682,2.193.22,2.717-1.357l-.011-.01a5.744,5.744,0,0,0-.554.489,1.9,1.9,0,0,1-2.159.741.262.262,0,0,0,.007.137" transform="translate(-55.96 -354.409)" fill="#e99d79"/>
        <path id="Path_39" data-name="Path 39" d="M381.192,578.607c.23-.222.809.014.786-.452-.027-.564-.558-.41-.927-.447-.466.38-.431.681.14.9" transform="translate(-322.881 -489.928)" fill="#9b7174"/>
        <path id="Path_40" data-name="Path 40" d="M58.233,586.1a1.008,1.008,0,0,0,.1.11c.216.183.181.716.634.547.531-.2.182-.618.152-.951-.461-.4-.734-.241-.883.294" transform="translate(-49.385 -496.605)" fill="#9b7174"/>
        <path id="Path_41" data-name="Path 41" d="M68.256,582.327c.248.144.194.71.65.528.384-.153.32-.5.19-.818-.092-.363-.311-.374-.622-.262s-.366.281-.218.553" transform="translate(-57.819 -493.324)" fill="#9b7174"/>
        <path id="Path_42" data-name="Path 42" d="M94.171,36l-.141,1.949.413-.013a5.184,5.184,0,0,0-.117-1.953L94.171,36" transform="translate(-79.743 -30.52)" fill="#abce67"/>
        <path id="Path_43" data-name="Path 43" d="M332.209,37.1a6.567,6.567,0,0,0-.144-2.1.687.687,0,0,0-.145-.029l0,2.127.285.006" transform="translate(-281.487 -29.654)" fill="#abce67"/>
        <path id="Path_44" data-name="Path 44" d="M337.086,40.351q0-.772-.009-1.545a.293.293,0,0,1-.129-.01c-.327.486-.093,1.026-.147,1.539l.285.016" transform="translate(-285.6 -32.901)" fill="#abce67"/>
        <path id="Path_45" data-name="Path 45" d="M266.125,437a.3.3,0,0,0-.109.308.285.285,0,0,0,.109-.308" transform="translate(-225.592 -370.601)" fill="#f9d394"/>
        <path id="Path_46" data-name="Path 46" d="M80.15,44.59v.017l.025-.01Z" transform="translate(-67.972 -37.815)" fill="#abce67"/>
        <path id="Path_47" data-name="Path 47" d="M165.078,198.033c.032.016.065.031.1.044l-.016-.051.189-.131c.228-.264.122-.582.122-.873,0-3.641.015-7.282-.018-10.922a20.778,20.778,0,0,1,.9-5.882,1.315,1.315,0,0,1,1.192-1.14,8.468,8.468,0,0,0,.958-.218q.007-.119.014-.239,0-.1-.007-.2l-.426-.314a.276.276,0,0,1-.327-.137l-.013-.01-.139-.139-.013-.013-.139-.139-.009-.013c-.166-.078-.334-.175-.226-.39s.32-.209.526-.195l.013-.008c.009-.306.221-.308.443-.3l.013-.009c.083-.366-.3-.577-.3-.914l-.01-.011a.262.262,0,0,1-.144-.289l-.008-.014c-.724-.184-.344-.488-.065-.742.431-.394.777-.761.116-1.26-.278-.21-.133-.383.119-.5.354-.162.52-.306.062-.589-.359-.222-.288-.492.073-.685l.01-.013.138-.139.014-.01c.014-.328-.325-.265-.466-.422l-.461-.012c-.1.124-.2.12-.3,0-1.431-.056-2.863-.107-4.294-.172a2.737,2.737,0,0,0-1.177.175,2.974,2.974,0,0,1-1.992,2.616,3.1,3.1,0,0,1-3.419-.287,1.807,1.807,0,0,1-.372-2.492l-6.832.322-.118.1-.04.043c.006.343-.355.459-.457.735l.012.012c.393.016.57.339.787.584.181.2.026.292-.185.305l0,.008a.4.4,0,0,1-.446.445l-.011.01c-.269.395,0,.705.144,1.049.107.262.448.6-.131.765l-.012.009a1.53,1.53,0,0,0,0,1.6c.11.29.312.621-.147.819l-.01.011a.4.4,0,0,1-.443.447l-.011.009q0,.146.007.292c.662.145,1.322.3,1.987.43a.479.479,0,0,1,.458.482c.5,3.619,1.019,7.234,1.513,10.852.272,2,.5,4,.748,6a.379.379,0,0,0,.159.322l.161.145,0,0a6.526,6.526,0,0,1,.727.182,19.789,19.789,0,0,0,7.332,1.235c1.388-.025,2.766-.18,4.152-.184" transform="translate(-125.375 -145.005)" fill="#fc0"/>
        <path id="Path_48" data-name="Path 48" d="M277.535,84.684l.426.314a33.516,33.516,0,0,0,10.872-2.4,4.594,4.594,0,0,0,2.342-3.192,11.5,11.5,0,0,0-.088-7.2,87.592,87.592,0,0,0-3.658-9.211,4.149,4.149,0,0,1-.513-2.17l-1.963.04c.134.424.292.843.4,1.275.119.494-.184.323-.419.235.641,2.516,1.363,5.012,1.892,7.556a16.7,16.7,0,0,1,.562,6.138,3.652,3.652,0,0,1-.275,1.093.964.964,0,0,1-1.123.613,26.259,26.259,0,0,0-5.519.146c-.852.09-1.7.184-2.555.276l-.248-.018-.014.009-.138.139-.01.013c-.044.363.186.534.457.705.305.193.369.409-.033.588-.16.071-.309.165-.506.272.107.086.176.152.255.2.54.365.612.716.034,1.139-.272.2-.578.438-.51.866l.008.014a.245.245,0,0,1,.144.289l.01.011a.727.727,0,0,1,.651.632c.057.222-.166.266-.348.283l-.013.009a.441.441,0,0,1-.443.3l-.013.009c-.082.2-.309.334-.3.585l.009.013.139.139.013.013.139.138.013.01a.333.333,0,0,1,.326.137" transform="translate(-234.823 -51.576)" fill="#f9d293"/>
        <path id="Path_49" data-name="Path 49" d="M353.862,274.241a3.009,3.009,0,0,0,2.956,3.032,3.014,3.014,0,1,0-2.956-3.032" transform="translate(-300.095 -230.032)" fill="#fdfcfd"/>
        <path id="Path_50" data-name="Path 50" d="M323.723,53.485l1.963-.04a4.048,4.048,0,0,1,1.488-.11.6.6,0,0,0,.22-.015c.256-.127.78.275.777-.321,0-.481-.047-1.062-.834-.8-.053.018-.135-.05-.2-.077a3.08,3.08,0,0,1-1.443.123,26.475,26.475,0,0,1-2.883.15l-.2.026c.085.653.733.716,1.111,1.061" transform="translate(-273.593 -44.205)" fill="#85829d"/>
        <path id="Path_51" data-name="Path 51" d="M283.875,221.244q-.007.12-.014.239c.154-.072.195-.149.014-.239" transform="translate(-240.73 -187.627)" fill="#f1a65b"/>
        <path id="Path_52" data-name="Path 52" d="M262.034,348.1l-.188.131.188-.131" transform="translate(-222.06 -295.206)" fill="#90eb86"/>
        <path id="Path_53" data-name="Path 53" d="M65.558,60.719l-.405,1.717.546-.193c-.856,3.262-1.783,6.507-2.355,9.839a10.129,10.129,0,0,0,.081,4.494,1.19,1.19,0,0,0,1.433,1.017,9.748,9.748,0,0,1,1.959-.11c2.009.139,4.02.278,6.014.578,0,.2-.566.392,0,.587l.012.012c0,.429.473.544.6.889l0,.008c-.271.026-.44.154-.446.445l-.011.01c-.446-.022-.606.114-.4.58.176.393.581.723.41,1.235l-.012.009c-.553.142-.7.459-.492,1a2.7,2.7,0,0,1,.35,1.421l-.011.011a.419.419,0,0,0-.443.447l-.01.009a.317.317,0,0,0-.127-.008c-.926-.1-1.855-.178-2.779-.3a27.2,27.2,0,0,1-7.666-1.936,3.233,3.233,0,0,1-1.59-1.445,10.265,10.265,0,0,1-1.1-7.386,57.657,57.657,0,0,1,3.283-9.1c.517-1.263,1.451-2.4,1.309-3.889l1.847.055M70.4,81.892c.173-.2.239-.44.016-.578-.179-.111-.4.075-.479.255-.071.156-.084.335-.246.442-.251.166-.509.408-.821.251-.282-.141-.141-.456-.121-.688a2.161,2.161,0,0,1,.56-1.568.694.694,0,0,0-.093-1.072.744.744,0,0,0-1.034-.025.7.7,0,0,0-.16,1.061c.552.691,0,1.4.044,2.1.012.207-.232.213-.419.128a.9.9,0,0,1-.612-.865c0-.238-.056-.621-.339-.546s-.226.419-.12.713c.3.836.924,1.279,2.3,1.3a2.288,2.288,0,0,0,1.529-.913" transform="translate(-49.915 -51.446)" fill="#f9d293"/>
        <path id="Path_54" data-name="Path 54" d="M167.883,76.907a4.943,4.943,0,0,0-3.283,3.368c-.354,1.082-.074,1.563.994,1.987a5.906,5.906,0,0,0,4.545.255,4.244,4.244,0,0,0,1.375-2.436,12.331,12.331,0,0,0,.135-2.547,3.929,3.929,0,0,1,0-2.358.818.818,0,0,1,.918-.634c.49.068.468.512.474.9a1.9,1.9,0,0,1-.467,1.322c.018.482-.122,1,.379,1.358.4.288.769.62,1.152.932.241.071.48.154.725.211a1.293,1.293,0,0,0,1.68-.986,5.168,5.168,0,0,0-.023-2.767,1.7,1.7,0,0,1,.161-1.3c.8-1.547.674-2.11-.657-3.27-.3-.265-.587-.557-.876-.84a.607.607,0,0,1-.215-.68c.222-.572-.092-.8-.575-.908a9.041,9.041,0,0,0-3.524-.1c-.214.038-.328.223-.49.338a4.486,4.486,0,0,1-2.482,1.006,1.673,1.673,0,0,0-1.414,1,.763.763,0,0,0,.349,1.1c.442.24.907.437,1.362.652a2.168,2.168,0,0,1,1.872.224,2.24,2.24,0,0,1,.76,3.087,2.89,2.89,0,0,1-2.874,1.078" transform="translate(-139.467 -57.911)" fill="#300a12"/>
        <path id="Path_55" data-name="Path 55" d="M199.753,124.846a12.332,12.332,0,0,1-.135,2.547,4.243,4.243,0,0,1-1.375,2.436,5.335,5.335,0,0,1-.309,1.391,1.807,1.807,0,0,0,.371,2.492,3.1,3.1,0,0,0,3.419.287,2.974,2.974,0,0,0,1.992-2.616c-.4-.027-.531-.343-.679-.632a8.227,8.227,0,0,1-.827-4.385c-.383-.312-.752-.644-1.152-.932-.5-.361-.361-.876-.379-1.358-.515.009-.511.64-.925.771" transform="translate(-167.571 -105.223)" fill="#f9d293"/>
        <path id="Path_56" data-name="Path 56" d="M120.028,34.189a4.882,4.882,0,0,0,1.247,3.324,1.547,1.547,0,0,0,2.5-.046,5.676,5.676,0,0,0,1.193-4.484,5.417,5.417,0,0,0-.874-2.634,1.765,1.765,0,0,0-3.158-.046,5.438,5.438,0,0,0-.912,2.925c.284.084.739-.176.752.437s-.38.525-.752.524" transform="translate(-101.79 -24.889)" fill="#1e4361"/>
        <path id="Path_57" data-name="Path 57" d="M285.817,33.229a6.439,6.439,0,0,0-.907-2.859,1.765,1.765,0,0,0-3.157-.086,6.726,6.726,0,0,0,.022,6.9c.978,1.277,2.249,1.229,3.153-.121A5.927,5.927,0,0,0,285.8,34.2c-.255-.076-.605.15-.736-.312-.226-.8.341-.625.751-.661" transform="translate(-238.144 -24.89)" fill="#1e4361"/>
        <path id="Path_58" data-name="Path 58" d="M187.26,95.42a2.168,2.168,0,0,1,1.872.224,2.24,2.24,0,0,1,.76,3.087,2.89,2.89,0,0,1-2.874,1.078,18.547,18.547,0,0,0,.243-4.39m.8,1.823a.271.271,0,0,0-.368.166.671.671,0,0,0,.108.571c.088.176.243.165.383.082.318-.189.727-.193,1.025-.5-.349-.276-.781-.187-1.147-.319m1.282-.415a1.194,1.194,0,0,0-1.731-.309,8.681,8.681,0,0,1,1.731.309" transform="translate(-158.601 -80.814)" fill="#f9d293"/>
        <path id="Path_59" data-name="Path 59" d="M76.727,53.544l1.847.055A2.334,2.334,0,0,0,79.9,52.55l-.3-.033a25.6,25.6,0,0,1-2.869-.145l-1.5-.012c-.343.011-.784-.361-.94.319-.169.738-.2.73.949.782a4.735,4.735,0,0,1,1.483.083" transform="translate(-62.932 -44.327)" fill="#85829d"/>
        <path id="Path_60" data-name="Path 60" d="M102.02,50.257a2.334,2.334,0,0,1-1.33,1.049l-.4,1.717.546-.194a9.232,9.232,0,0,0,1.358-1.528,2.217,2.217,0,0,1,.611-.95c-.036-.288.217-.487.284-.756-.639-.169-.758.39-1.065.661" transform="translate(-85.047 -42.033)" fill="#e99d79"/>
        <path id="Path_61" data-name="Path 61" d="M317.5,51.236c-.379-.345-1.026-.408-1.111-1.061-.409-.149-.507-.764-1.1-.7-.074.307.224.518.242.8a2.86,2.86,0,0,1,.595.952,8.35,8.35,0,0,0,1.355,1.519c.235.088.538.258.419-.235-.1-.432-.262-.85-.4-1.275" transform="translate(-267.368 -41.955)" fill="#e99d79"/>
        <path id="Path_62" data-name="Path 62" d="M323.071,49.672a26.438,26.438,0,0,0,2.883-.15q-.011-.289-.022-.577l-.589-.016-.285-.016-.479.012-.285-.006-.466.013-.435-.022-.444.043c-.1.263.11.475.123.719" transform="translate(-273.856 -41.478)" fill="#f9d293"/>
        <path id="Path_63" data-name="Path 63" d="M90.831,49.464a25.6,25.6,0,0,0,2.869.145c.034-.241.235-.448.142-.714l-.577-.033-.293.008-.482-.023-.28.025-.481-.031-.413.012-.464.026q-.011.293-.022.586" transform="translate(-77.03 -41.419)" fill="#f9d293"/>
        <path id="Path_64" data-name="Path 64" d="M113.429,54.746a2.217,2.217,0,0,0-.611.95l1.1.032c.372,0,.765.08.752-.524s-.468-.353-.752-.437l-.485-.02" transform="translate(-95.676 -46.428)" fill="#85829d"/>
        <path id="Path_65" data-name="Path 65" d="M310.355,55.7a2.859,2.859,0,0,0-.595-.952l-.485.02c-.41.036-.977-.137-.751.661.131.463.481.236.736.312l1.094-.041" transform="translate(-261.603 -46.429)" fill="#85829d"/>
        <path id="Path_66" data-name="Path 66" d="M106.855,34.915l.577.033c.013-.728.03-1.457.037-2.185,0-.172,0-.387-.255-.368-.2.015-.19.2-.2.349q-.081,1.086-.159,2.171" transform="translate(-90.619 -27.472)" fill="#e99d79"/>
        <path id="Path_67" data-name="Path 67" d="M322.8,35.161l.444-.042c-.007-.651-.009-1.3-.023-1.952,0-.216.031-.527-.273-.519-.278.007-.184.309-.184.488,0,.675.022,1.35.036,2.025" transform="translate(-273.713 -27.687)" fill="#e99d79"/>
        <path id="Path_68" data-name="Path 68" d="M149.414,174.326c0,.2-.566.392,0,.587.1-.276.463-.392.457-.735l-.457.148" transform="translate(-126.498 -147.713)" fill="#f1a65b"/>
        <path id="Path_69" data-name="Path 69" d="M279.353,172.3l.248.018c.22-.89-.468-.308-.714-.44.141.157.48.094.466.422" transform="translate(-236.512 -145.707)" fill="#f1a65b"/>
        <path id="Path_70" data-name="Path 70" d="M273.893,172.142c.1.125.2.128.3,0l-.3,0" transform="translate(-232.277 -145.986)" fill="#f1a65b"/>
        <path id="Path_71" data-name="Path 71" d="M154.091,173.321l.118-.1-.118.1" transform="translate(-130.678 -146.899)" fill="#f1a65b"/>
        <path id="Path_72" data-name="Path 72" d="M37.479,274.234a3,3,0,1,0-2.943,3.039,3.013,3.013,0,0,0,2.943-3.039" transform="translate(-26.702 -230.031)" fill="#fdfcfd"/>
        <path id="Path_73" data-name="Path 73" d="M146.762,218.93a.314.314,0,0,0-.127-.008c-.057.145-.162.313.134.3q0-.146-.007-.292" transform="translate(-124.299 -185.656)" fill="#f1a65b"/>
        <path id="Path_74" data-name="Path 74" d="M180.056,340.1l-.161-.145c0,.036,0,.072,0,.107l.163.037" transform="translate(-152.559 -288.303)" fill="#90eb86"/>
        <path id="Path_75" data-name="Path 75" d="M136.914,371.559l1.361-.594c-1.035-2.071-2.112-4.119-3.323-6.095.428,1.96,1.176,3.824,1.729,5.746a2.519,2.519,0,0,1,.232.942" transform="translate(-114.447 -309.431)" fill="#e99d79"/>
        <path id="Path_76" data-name="Path 76" d="M83.892,416.889c.035-.052.07-.1.1-.157a.591.591,0,0,0-.05-.037l-.063.184.011.01" transform="translate(-71.136 -353.381)" fill="#e99d79"/>
        <path id="Path_77" data-name="Path 77" d="M193.147,342.122c-1.386,0-2.764.159-4.152.184a19.789,19.789,0,0,1-7.332-1.235,6.531,6.531,0,0,0-.727-.182,10.212,10.212,0,0,0,5.555,2.291,14.262,14.262,0,0,0,3.083.016l.756-.152.62-.074.767-.233a7.338,7.338,0,0,0,1.43-.616" transform="translate(-153.444 -289.093)" fill="#90eb86"/>
        <path id="Path_78" data-name="Path 78" d="M238.541,355.078l-.756.152.953,11.342.74.014c-.019-.5-.017-1.008-.06-1.509q-.431-5-.878-10" transform="translate(-201.655 -301.126)" fill="#f6f6f6"/>
        <path id="Path_79" data-name="Path 79" d="M247.61,353.057l-.767.233,1.052,11.569h.75q-.4-4.737-.808-9.473c-.067-.777-.151-1.552-.228-2.329" transform="translate(-209.337 -299.412)" fill="#f6f6f6"/>
        <path id="Path_80" data-name="Path 80" d="M244.434,366.161l-1.052-11.569-.62.074q.44,5,.877,10c.043.5.041,1.006.06,1.509l.735-.013" transform="translate(-205.876 -300.714)" fill="#d3b91c"/>
        <path id="Path_81" data-name="Path 81" d="M99.913,36.018l.28-.025q0-1.151,0-2.3l-.28-.008Z" transform="translate(-84.732 -28.566)" fill="#abce67"/>
        <path id="Path_82" data-name="Path 82" d="M276.562,179.865c-.069-.427.238-.666.51-.866.577-.423.506-.774-.035-1.139-.078-.053-.148-.118-.254-.2.2-.107.347-.2.506-.272.4-.179.339-.4.033-.588-.271-.171-.5-.342-.457-.705-.361.194-.431.464-.072.686.458.283.293.427-.062.589-.252.115-.4.288-.119.5.661.5.315.866-.116,1.26-.279.255-.659.559.065.743" transform="translate(-234.186 -149.334)" fill="#f1a65b"/>
        <path id="Path_83" data-name="Path 83" d="M148.591,199.995c-.553.142-.7.459-.492,1a2.7,2.7,0,0,1,.35,1.421c.459-.2.257-.529.147-.819a1.53,1.53,0,0,1,0-1.6" transform="translate(-125.521 -169.607)" fill="#f1a65b"/>
        <path id="Path_84" data-name="Path 84" d="M149.1,187.982c-.446-.022-.606.114-.4.58.176.393.581.723.41,1.235.579-.161.237-.5.131-.765-.139-.344-.413-.654-.143-1.049" transform="translate(-126.033 -159.417)" fill="#f1a65b"/>
        <path id="Path_85" data-name="Path 85" d="M150.9,179.093c0,.429.473.544.6.889.211-.013.366-.1.185-.305-.217-.244-.394-.568-.787-.584" transform="translate(-127.969 -151.881)" fill="#f1a65b"/>
        <path id="Path_86" data-name="Path 86" d="M280.261,203.911c.182-.017.406-.06.348-.283a.726.726,0,0,0-.651-.632c0,.337.386.549.3.914" transform="translate(-237.42 -172.153)" fill="#f1a65b"/>
        <path id="Path_87" data-name="Path 87" d="M275.444,211.627c-.01-.251.216-.381.3-.585-.205-.014-.421-.016-.526.2s.06.312.227.39" transform="translate(-233.371 -178.97)" fill="#f1a65b"/>
        <path id="Path_88" data-name="Path 88" d="M148.351,215.994a.419.419,0,0,0-.443.447.4.4,0,0,0,.443-.447" transform="translate(-125.434 -183.175)" fill="#f1a65b"/>
        <path id="Path_89" data-name="Path 89" d="M152.343,185c-.271.026-.44.154-.446.445a.4.4,0,0,0,.446-.445" transform="translate(-128.817 -156.89)" fill="#f1a65b"/>
        <path id="Path_90" data-name="Path 90" d="M278.949,209.346a.441.441,0,0,0,.443-.3c-.222-.013-.434-.011-.443.3" transform="translate(-236.564 -177.284)" fill="#f1a65b"/>
        <path id="Path_91" data-name="Path 91" d="M279.282,217.1a.333.333,0,0,0-.326-.137.276.276,0,0,0,.326.137" transform="translate(-236.57 -183.993)" fill="#f1a65b"/>
        <path id="Path_92" data-name="Path 92" d="M279.08,201.311a.245.245,0,0,0-.144-.289.262.262,0,0,0,.144.289" transform="translate(-236.553 -170.478)" fill="#f1a65b"/>
        <path id="Path_93" data-name="Path 93" d="M278.094,216.15l-.139-.139.139.139" transform="translate(-235.721 -183.189)" fill="#f1a65b"/>
        <path id="Path_94" data-name="Path 94" d="M277.095,215.15l-.139-.139.139.139" transform="translate(-234.874 -182.341)" fill="#f1a65b"/>
        <path id="Path_95" data-name="Path 95" d="M280.955,175.23l.138-.139-.138.139" transform="translate(-238.266 -148.487)" fill="#f1a65b"/>
        <path id="Path_96" data-name="Path 96" d="M109.19,182.242c-.106-.294-.166-.637.12-.713s.338.308.339.546a.9.9,0,0,0,.612.865c.186.085.431.079.418-.128-.041-.7.508-1.412-.044-2.1a.7.7,0,0,1,.16-1.062.744.744,0,0,1,1.034.025.694.694,0,0,1,.093,1.072,2.16,2.16,0,0,0-.56,1.568c-.02.232-.16.547.121.688.312.156.57-.086.821-.251.161-.106.174-.286.246-.442.083-.18.3-.366.479-.255.223.138.156.379-.016.578a2.288,2.288,0,0,1-1.529.913c-1.372-.021-2-.464-2.3-1.3m2.138-2.364a.367.367,0,0,0-.416.416.381.381,0,0,0,.385.387c.239.02.342-.162.37-.348-.007-.264-.1-.442-.339-.455" transform="translate(-92.525 -152.183)" fill="#9b7174"/>
        <path id="Path_97" data-name="Path 97" d="M210.789,112.4c.414-.13.41-.762.925-.771a1.9,1.9,0,0,0,.467-1.322c-.006-.388.016-.832-.474-.9a.818.818,0,0,0-.918.634,3.929,3.929,0,0,0,0,2.358" transform="translate(-178.606 -92.773)" fill="#abce67"/>
        <path id="Path_98" data-name="Path 98" d="M192.824,108.331c-.349-.276-.781-.187-1.147-.319a.271.271,0,0,0-.368.166.671.671,0,0,0,.108.571c.088.176.243.165.383.082.318-.189.727-.193,1.025-.5" transform="translate(-162.214 -91.583)" fill="#f6f6f6"/>
        <path id="Path_99" data-name="Path 99" d="M190.95,102.04a8.661,8.661,0,0,1,1.731.309,1.194,1.194,0,0,0-1.731-.309" transform="translate(-161.936 -86.334)" fill="#85829d"/>
        <path id="Path_100" data-name="Path 100" d="M121.767,182.718c-.007-.264-.1-.442-.339-.455a.368.368,0,0,0-.416.416.381.381,0,0,0,.385.387c.239.02.342-.162.37-.348" transform="translate(-102.625 -154.568)" fill="#f9d293"/>
      </g>
    </g>
  </g>
</svg>
