<svg xmlns="http://www.w3.org/2000/svg" width="24" height="24" viewBox="0 0 24 24">
  <g id="vuesax_bold_like-shapes" data-name="vuesax/bold/like-shapes" transform="translate(-556 -252)">
    <g id="like-shapes">
      <path id="Vector" d="M0,0H24V24H0Z" transform="translate(556 252)" fill="none" opacity="0"/>
      <path id="Vector-2" data-name="Vector" d="M19.555,8.742,18.2,7.162a2.216,2.216,0,0,1-.47-1.26V4.2a1.938,1.938,0,0,0-1.93-1.93H14.1a2.243,2.243,0,0,1-1.26-.47L11.255.442a2.015,2.015,0,0,0-2.52,0l-1.57,1.37a2.307,2.307,0,0,1-1.26.46H4.175A1.938,1.938,0,0,0,2.245,4.2v1.71a2.276,2.276,0,0,1-.46,1.25L.435,8.752a2.013,2.013,0,0,0,0,2.5l1.35,1.59a2.276,2.276,0,0,1,.46,1.25V15.8a1.938,1.938,0,0,0,1.93,1.93H5.9a2.243,2.243,0,0,1,1.26.47l1.58,1.36a2.015,2.015,0,0,0,2.52,0l1.58-1.36a2.216,2.216,0,0,1,1.26-.47h1.7a1.938,1.938,0,0,0,1.93-1.93V14.1a2.243,2.243,0,0,1,.47-1.26l1.36-1.58A2.029,2.029,0,0,0,19.555,8.742ZM14.675,10l-1.17,3.56a1.519,1.519,0,0,1-1.42,1.07h-1.85a1.563,1.563,0,0,1-.97-.31L7.8,13.172c-.03.64-.32.91-1.03.91h-.48c-.74,0-1.04-.29-1.04-.99V8.313c0-.7.3-.99,1.04-.99h.49c.74,0,1.04.29,1.04.99v.36l1.94-2.88a1,1,0,0,1,1.14-.36,1.026,1.026,0,0,1,.67,1.14l-.24,1.56a.438.438,0,0,0,.43.52H13.7a1.052,1.052,0,0,1,.89.42A1.036,1.036,0,0,1,14.675,10Z" transform="translate(558.005 253.997)" fill="#292d32"/>
    </g>
  </g>
</svg>
